<svg width="571" height="73" viewBox="0 0 571 73" fill="none" xmlns="http://www.w3.org/2000/svg">
<path d="M388.183 30.2725C388.394 30.6956 388.5 31.1676 388.5 31.6885C388.5 32.193 388.468 32.6162 388.403 32.958C388.354 33.2998 388.272 33.6009 388.158 33.8613C387.865 34.4798 387.491 34.7891 387.035 34.7891H371.142C370.963 34.3008 370.873 33.8206 370.873 33.3486C370.873 32.8604 370.898 32.4453 370.947 32.1035C371.012 31.7617 371.101 31.4525 371.215 31.1758C371.508 30.5736 371.85 30.2725 372.24 30.2725H388.183Z" fill="#424242"/>
<path d="M2.63672 37.8381C2.63672 35.8687 2.84017 34.1191 3.24707 32.5891C3.65397 31.0592 4.19922 29.692 4.88281 28.4875C5.58268 27.2668 6.39648 26.2008 7.32422 25.2893C8.26823 24.3778 9.27734 23.621 10.3516 23.0188C12.4674 21.8144 14.5508 21.2122 16.6016 21.2122C18.6523 21.2122 20.2962 21.5784 21.5332 22.3108C22.7702 23.0269 23.7793 23.9872 24.5605 25.1917C26.0091 27.4866 26.7334 30.5383 26.7334 34.3469C26.7334 35.7629 26.1393 36.4872 24.9512 36.5198L7.91016 36.886C8.00781 40.4179 8.91927 43.0302 10.6445 44.7229C12.1094 46.1552 14.0055 46.8713 16.333 46.8713C19.7998 46.8713 22.6156 46.1471 24.7803 44.6985C24.9268 44.6985 25.1058 44.8206 25.3174 45.0647C25.7243 45.553 25.9277 45.9762 25.9277 46.3342C25.9277 47.1155 24.9512 48.1165 22.998 49.3372C20.752 50.7369 18.1315 51.4368 15.1367 51.4368C11.2305 51.4368 8.16243 50.1917 5.93262 47.7014C3.73535 45.26 2.63672 41.9722 2.63672 37.8381ZM8.05664 33.7366C12.7441 33.5087 17.0329 33.2076 20.9229 32.8333C21.1019 27.6575 19.3115 25.0696 15.5518 25.0696C13.4521 25.0696 11.735 25.8834 10.4004 27.511C9.17969 29.0084 8.39844 31.0836 8.05664 33.7366ZM34.79 50.9729C32.609 50.9729 31.5186 50.3463 31.5186 49.093C31.5186 48.5234 31.6488 48.1246 31.9092 47.8967C32.3812 48.0269 32.8695 48.092 33.374 48.092C33.8949 48.092 34.3424 48.0269 34.7168 47.8967C35.1074 47.7665 35.4492 47.5793 35.7422 47.3352C36.3281 46.8306 36.6211 46.1226 36.6211 45.2112V18.6243C36.5885 17.9732 36.4502 17.4849 36.2061 17.1594C35.9619 16.8339 35.5957 16.606 35.1074 16.4758C34.6191 16.3293 34.2122 16.2236 33.8867 16.1584C33.5775 16.0933 33.2926 16.012 33.0322 15.9143C32.4626 15.6702 32.1777 15.3691 32.1777 15.011C32.1777 14.2623 32.2998 13.7333 32.5439 13.4241C32.8857 13.5055 33.4066 13.5461 34.1064 13.5461H38.8672C40.2995 13.5461 41.5853 14.2704 42.7246 15.719L63.2568 41.7444V18.9661C63.2406 18.315 63.1022 17.7698 62.8418 17.3303C62.5977 16.8909 62.1745 16.5979 61.5723 16.4514C60.9863 16.3049 60.4655 16.1991 60.0098 16.134C59.554 16.0527 59.1471 15.9469 58.7891 15.8167C58.0241 15.5562 57.6416 15.1331 57.6416 14.5471C57.6416 14.0588 57.7718 13.6845 58.0322 13.4241C58.374 13.5055 58.8949 13.5461 59.5947 13.5461H69.4336C71.6146 13.5461 72.7051 14.01 72.7051 14.9377C72.7051 15.719 72.583 16.248 72.3389 16.5247C71.932 16.4107 71.46 16.3538 70.9229 16.3538C70.402 16.3538 69.9463 16.37 69.5557 16.4026C69.165 16.4189 68.8151 16.5165 68.5059 16.6956C67.8223 17.0699 67.4642 17.8349 67.4316 18.9905V50.2893C67.4316 50.7613 67.3014 51.0461 67.041 51.1438C66.7806 51.2577 66.3086 51.3147 65.625 51.3147C64.4694 51.3147 63.2324 50.4602 61.9141 48.7512L40.7959 22.1887V45.553C40.8773 46.9527 41.5365 47.8153 42.7734 48.1409C43.2454 48.2385 43.7093 48.3199 44.165 48.385C44.637 48.4501 45.0521 48.5315 45.4102 48.6292C46.2402 48.8407 46.6553 49.2151 46.6553 49.7522C46.6553 50.3381 46.5332 50.7857 46.2891 51.095C45.9473 51.0136 45.4264 50.9729 44.7266 50.9729H34.79ZM93.7744 51.1682C93.4001 51.038 92.5944 50.9729 91.3574 50.9729H78.8086C77.9622 50.9729 77.2868 50.8427 76.7822 50.5823C76.2777 50.3056 76.0254 49.8092 76.0254 49.093C76.0254 48.5722 76.1475 48.1571 76.3916 47.8479C77.0101 48.0107 77.6042 48.092 78.1738 48.092C78.7435 48.092 79.1911 48.0351 79.5166 47.9211C79.8421 47.7909 80.127 47.5712 80.3711 47.262C80.8594 46.6109 81.1035 45.5286 81.1035 44.0149V19.5032C81.1035 17.9895 80.2083 17.0455 78.418 16.6711C77.2949 16.4433 76.5625 16.1829 76.2207 15.8899C75.8789 15.5969 75.708 15.2795 75.708 14.9377C75.708 14.189 75.8382 13.6845 76.0986 13.4241C76.3916 13.5055 76.6602 13.5461 76.9043 13.5461H82.959L91.6504 13.302C99.2676 13.302 104.085 15.3772 106.104 19.5276C106.836 21.025 107.202 22.5224 107.202 24.0198C107.202 25.5172 107.096 26.7948 106.885 27.8528C106.673 28.9107 106.307 29.9443 105.786 30.9534C105.282 31.9462 104.606 32.8902 103.76 33.7854C102.913 34.6643 101.855 35.4374 100.586 36.1047C97.8353 37.537 94.3197 38.2532 90.0391 38.2532H89.1113C88.6556 38.2532 88.4277 37.9602 88.4277 37.3743C88.4277 36.0885 88.7777 35.3642 89.4775 35.2014C95.5973 35.3316 99.3001 33.5087 100.586 29.7327C100.977 28.5445 101.172 27.275 101.172 25.9241C101.172 24.5732 101.025 23.3362 100.732 22.2131C100.439 21.0738 99.9105 20.0647 99.1455 19.1858C97.4528 17.2652 94.6533 16.3049 90.7471 16.3049C89.1683 16.3049 88.1185 16.6467 87.5977 17.3303C87.1094 17.9325 86.8652 19.1532 86.8652 20.9924V45.3821C86.9466 46.6516 87.9557 47.4247 89.8926 47.7014C91.6341 47.9456 92.7165 48.1734 93.1396 48.385C93.5628 48.5966 93.8395 48.8082 93.9697 49.0198C94.0999 49.2151 94.165 49.4592 94.165 49.7522C94.165 50.3707 94.0348 50.8427 93.7744 51.1682ZM132.104 23.8489C132.104 20.1217 130.778 17.7861 128.125 16.842C127.214 16.5165 126.147 16.3538 124.927 16.3538C123.706 16.3538 122.656 16.4921 121.777 16.7688C120.898 17.0455 120.166 17.4198 119.58 17.8918C118.392 18.8521 117.798 20.1217 117.798 21.7004C117.798 24.093 119.556 26.1357 123.071 27.8284L126.123 29.2688C127.604 29.9524 129.028 30.6523 130.396 31.3684C131.779 32.0683 133 32.8739 134.058 33.7854C136.385 35.7711 137.549 38.2288 137.549 41.1584C137.549 44.2997 136.182 46.8306 133.447 48.7512C130.892 50.5416 127.686 51.4368 123.828 51.4368C120.768 51.4368 118.066 50.9566 115.723 49.9963C113.997 49.3127 112.769 48.3443 112.036 47.0911C111.662 46.4563 111.475 45.6832 111.475 44.7717C111.475 42.9488 111.93 41.248 112.842 39.6692C113.151 39.2948 113.574 39.1077 114.111 39.1077C115.153 39.1077 115.755 39.4169 115.918 40.0354C116.13 42.8512 116.992 44.9019 118.506 46.1877C120.036 47.4736 122.168 48.1165 124.902 48.1165C128.044 48.1165 130.151 47.0911 131.226 45.0403C131.6 44.3241 131.787 43.4859 131.787 42.5256C131.787 41.5491 131.527 40.6783 131.006 39.9133C130.485 39.1484 129.793 38.4403 128.931 37.7893C127.612 36.8127 125.863 35.8687 123.682 34.9573C121.517 34.0458 119.824 33.2483 118.604 32.5647C117.399 31.8811 116.333 31.0836 115.405 30.1721C113.387 28.1864 112.378 25.7369 112.378 22.8235C112.378 19.845 113.656 17.4605 116.211 15.6702C118.669 13.9449 121.842 13.0823 125.732 13.0823C130.664 13.0823 133.887 14.0995 135.4 16.134C135.954 16.8665 136.23 17.8267 136.23 19.0149C136.23 20.203 136.117 21.2366 135.889 22.1155C135.677 22.9944 135.465 23.564 135.254 23.8245C134.896 24.2639 134.277 24.4836 133.398 24.4836C132.536 24.4836 132.104 24.2721 132.104 23.8489ZM181.812 25.387C182.023 25.745 182.129 26.2008 182.129 26.7542C182.129 27.3075 182.096 27.7551 182.031 28.0969C181.982 28.4224 181.901 28.7236 181.787 29.0002C181.494 29.6025 181.128 29.9036 180.688 29.9036H161.938C161.759 29.4153 161.67 28.9351 161.67 28.4631C161.67 27.9749 161.694 27.5598 161.743 27.218C161.808 26.8762 161.898 26.5751 162.012 26.3147C162.305 25.6962 162.646 25.387 163.037 25.387H181.812ZM181.812 35.0549C182.023 35.413 182.129 35.8687 182.129 36.4221C182.129 36.9755 182.096 37.4231 182.031 37.7649C181.982 38.0904 181.901 38.3915 181.787 38.6682C181.51 39.2542 181.144 39.5471 180.688 39.5471H161.938C161.759 39.0588 161.67 38.5787 161.67 38.1067C161.67 37.6184 161.694 37.2034 161.743 36.8616C161.808 36.5198 161.898 36.2105 162.012 35.9338C162.288 35.3479 162.63 35.0549 163.037 35.0549H181.812Z" fill="#424242"/>
<path d="M438.949 34.5693C438.038 34.5693 437.257 34.5205 436.606 34.4229C435.955 34.3252 435.295 34.1543 434.628 33.9102C433.977 33.6497 433.342 33.2917 432.724 32.8359C432.105 32.3802 431.56 31.7861 431.088 31.0537C430.046 29.4424 429.526 27.3428 429.526 24.7549C429.526 19.986 431.259 16.8854 434.726 15.4531C435.898 14.9648 436.956 14.7207 437.9 14.7207C438.844 14.7207 439.641 14.7695 440.292 14.8672C440.96 14.9486 441.619 15.1195 442.27 15.3799C442.937 15.624 443.58 15.974 444.198 16.4297C444.817 16.8854 445.37 17.4876 445.859 18.2363C446.9 19.8477 447.421 22.0205 447.421 24.7549C447.421 29.2796 445.68 32.2826 442.197 33.7637C440.96 34.3008 439.877 34.5693 438.949 34.5693ZM442.563 24.7549C442.563 20.2464 441.196 17.9922 438.461 17.9922C435.743 17.9922 434.384 20.2464 434.384 24.7549C434.384 28.1077 435.198 30.1829 436.825 30.9805C437.33 31.2246 437.875 31.3467 438.461 31.3467C439.063 31.3467 439.609 31.2246 440.097 30.9805C440.601 30.7363 441.041 30.3457 441.415 29.8086C442.18 28.7018 442.563 27.0173 442.563 24.7549ZM454.892 45.6533C454.615 44.6279 454.477 43.4154 454.477 42.0156C454.477 40.5996 454.623 39.3708 454.916 38.3291C455.209 37.2874 455.6 36.4004 456.088 35.668C456.576 34.9193 457.13 34.3089 457.748 33.8369C458.383 33.3486 459.026 32.9661 459.677 32.6895C460.849 32.2012 461.907 31.957 462.851 31.957C463.811 31.957 464.617 32.0059 465.268 32.1035C465.935 32.1849 466.594 32.3558 467.245 32.6162C467.913 32.8604 468.547 33.2103 469.15 33.666C469.768 34.1217 470.322 34.724 470.81 35.4727C471.851 37.1165 472.372 39.2894 472.372 41.9912C472.372 46.5322 470.639 49.5352 467.172 51C465.935 51.5371 464.666 51.8057 463.364 51.8057C458.855 51.8057 456.031 49.7549 454.892 45.6533ZM467.538 41.9912C467.538 37.4827 466.171 35.2285 463.437 35.2285C460.702 35.2285 459.335 37.4827 459.335 41.9912C459.335 45.3441 460.157 47.4193 461.801 48.2168C462.306 48.4609 462.851 48.583 463.437 48.583C464.039 48.583 464.584 48.4609 465.073 48.2168C465.577 47.9727 466.008 47.582 466.366 47.0449C467.148 45.9382 467.538 44.2536 467.538 41.9912ZM459.75 15.6484C460.531 15.5671 461.215 15.7461 461.801 16.1855C462.892 16.9993 463.258 17.6829 462.9 18.2363L441.806 50.9268C440.927 50.8942 440.219 50.6663 439.682 50.2432C438.673 49.4945 438.323 48.8597 438.632 48.3389L459.75 15.6484Z" fill="#DB4545"/>
<path d="M534.263 1C514.376 1 498.263 17.1129 498.263 37C498.263 56.8871 514.376 73 534.263 73C554.151 73 570.263 56.8871 570.263 37C570.263 17.1129 554.151 1 534.263 1ZM545.876 25.3871C548.446 25.3871 550.521 27.4629 550.521 30.0323C550.521 32.6016 548.446 34.6774 545.876 34.6774C543.307 34.6774 541.231 32.6016 541.231 30.0323C541.231 27.4629 543.307 25.3871 545.876 25.3871ZM522.651 25.3871C525.22 25.3871 527.296 27.4629 527.296 30.0323C527.296 32.6016 525.22 34.6774 522.651 34.6774C520.081 34.6774 518.005 32.6016 518.005 30.0323C518.005 27.4629 520.081 25.3871 522.651 25.3871ZM547.357 57.0613C544.105 53.171 539.33 50.9355 534.263 50.9355C529.197 50.9355 524.421 53.171 521.17 57.0613C519.21 59.4274 515.639 56.4516 517.599 54.0855C521.736 49.1355 527.818 46.2903 534.263 46.2903C540.709 46.2903 546.791 49.1355 550.913 54.1C552.888 56.4516 549.317 59.4274 547.357 57.0613Z" fill="#DB4545"/>
<path d="M210.036 34.5693C209.125 34.5693 208.343 34.5205 207.692 34.4229C207.041 34.3252 206.382 34.1543 205.715 33.9102C205.064 33.6497 204.429 33.2917 203.811 32.8359C203.192 32.3802 202.647 31.7861 202.175 31.0537C201.133 29.4424 200.612 27.3428 200.612 24.7549C200.612 19.986 202.346 16.8854 205.812 15.4531C206.984 14.9648 208.042 14.7207 208.986 14.7207C209.93 14.7207 210.728 14.7695 211.379 14.8672C212.046 14.9486 212.705 15.1195 213.356 15.3799C214.024 15.624 214.667 15.974 215.285 16.4297C215.904 16.8854 216.457 17.4876 216.945 18.2363C217.987 19.8477 218.508 22.0205 218.508 24.7549C218.508 29.2796 216.766 32.2826 213.283 33.7637C212.046 34.3008 210.964 34.5693 210.036 34.5693ZM213.649 24.7549C213.649 20.2464 212.282 17.9922 209.548 17.9922C206.83 17.9922 205.471 20.2464 205.471 24.7549C205.471 28.1077 206.285 30.1829 207.912 30.9805C208.417 31.2246 208.962 31.3467 209.548 31.3467C210.15 31.3467 210.695 31.2246 211.184 30.9805C211.688 30.7363 212.128 30.3457 212.502 29.8086C213.267 28.7018 213.649 27.0173 213.649 24.7549ZM225.979 45.6533C225.702 44.6279 225.563 43.4154 225.563 42.0156C225.563 40.5996 225.71 39.3708 226.003 38.3291C226.296 37.2874 226.687 36.4004 227.175 35.668C227.663 34.9193 228.216 34.3089 228.835 33.8369C229.47 33.3486 230.113 32.9661 230.764 32.6895C231.936 32.2012 232.993 31.957 233.938 31.957C234.898 31.957 235.703 32.0059 236.354 32.1035C237.022 32.1849 237.681 32.3558 238.332 32.6162C238.999 32.8604 239.634 33.2103 240.236 33.666C240.855 34.1217 241.408 34.724 241.896 35.4727C242.938 37.1165 243.459 39.2894 243.459 41.9912C243.459 46.5322 241.726 49.5352 238.259 51C237.022 51.5371 235.752 51.8057 234.45 51.8057C229.942 51.8057 227.118 49.7549 225.979 45.6533ZM238.625 41.9912C238.625 37.4827 237.258 35.2285 234.523 35.2285C231.789 35.2285 230.422 37.4827 230.422 41.9912C230.422 45.3441 231.244 47.4193 232.888 48.2168C233.392 48.4609 233.938 48.583 234.523 48.583C235.126 48.583 235.671 48.4609 236.159 48.2168C236.664 47.9727 237.095 47.582 237.453 47.0449C238.234 45.9382 238.625 44.2536 238.625 41.9912ZM230.837 15.6484C231.618 15.5671 232.302 15.7461 232.888 16.1855C233.978 16.9993 234.344 17.6829 233.986 18.2363L212.893 50.9268C212.014 50.8942 211.306 50.6663 210.769 50.2432C209.759 49.4945 209.41 48.8597 209.719 48.3389L230.837 15.6484Z" fill="#45DB54"/>
<path d="M305.35 1C285.463 1 269.35 17.1129 269.35 37C269.35 56.8871 285.463 73 305.35 73C325.237 73 341.35 56.8871 341.35 37C341.35 17.1129 325.237 1 305.35 1ZM316.963 25.3871C319.532 25.3871 321.608 27.4629 321.608 30.0323C321.608 32.6016 319.532 34.6774 316.963 34.6774C314.393 34.6774 312.317 32.6016 312.317 30.0323C312.317 27.4629 314.393 25.3871 316.963 25.3871ZM293.737 25.3871C296.306 25.3871 298.382 27.4629 298.382 30.0323C298.382 32.6016 296.306 34.6774 293.737 34.6774C291.167 34.6774 289.092 32.6016 289.092 30.0323C289.092 27.4629 291.167 25.3871 293.737 25.3871ZM322.014 50.0935C317.877 55.0581 311.809 57.9032 305.35 57.9032C298.89 57.9032 292.822 55.0581 288.685 50.0935C286.711 47.7274 290.282 44.7661 292.256 47.1177C295.508 51.0226 300.269 53.2435 305.35 53.2435C310.43 53.2435 315.192 51.0081 318.443 47.1177C320.388 44.7661 323.974 47.7274 322.014 50.0935Z" fill="#45DB54"/>
</svg>
